<?xml version="1.0" standalone="no"?>
<!DOCTYPE svg PUBLIC "-//W3C//DTD SVG 20010904//EN"
 "http://www.w3.org/TR/2001/REC-SVG-20010904/DTD/svg10.dtd">
<svg version="1.0" xmlns="http://www.w3.org/2000/svg"
 width="1500.000000pt" height="1500.000000pt" viewBox="0 0 1500.000000 1500.000000"
 preserveAspectRatio="xMidYMid meet">
<metadata>
Created by potrace 1.10, written by Peter Selinger 2001-2011
</metadata>
<g transform="translate(0.000000,1500.000000) scale(0.100000,-0.100000)"
fill="#ffc800" stroke="none">
<path d="M2704 10986 c-11 -28 15 -46 66 -46 53 0 109 -17 188 -58 45 -23 54
-33 63 -67 6 -22 15 -45 19 -50 19 -23 40 -103 40 -152 0 -28 4 -54 9 -57 14
-9 23 -423 22 -1028 -1 -570 -1 -577 19 -588 11 -6 25 -8 30 -5 12 8 33 83 25
94 -3 5 -5 285 -6 623 0 544 -7 818 -25 971 -6 43 -4 47 16 47 36 0 60 -19 60
-46 0 -14 14 -59 30 -101 17 -41 30 -83 30 -93 0 -10 16 -37 35 -60 19 -23 35
-52 35 -63 0 -12 16 -47 35 -77 19 -30 35 -58 35 -63 0 -9 11 -34 50 -122 10
-22 21 -53 25 -70 3 -16 12 -37 19 -45 7 -8 21 -35 30 -60 10 -25 24 -52 31
-60 8 -8 29 -51 48 -95 53 -125 78 -176 101 -215 12 -19 27 -57 34 -85 7 -27
20 -57 28 -66 8 -8 14 -23 14 -31 0 -9 7 -21 15 -28 8 -7 15 -20 15 -30 0 -10
6 -20 13 -23 7 -3 19 -24 26 -47 15 -51 100 -222 115 -233 6 -4 43 -6 81 -3
39 3 126 2 195 -3 69 -5 127 -7 129 -5 8 7 -33 78 -60 104 -9 8 -22 36 -29 63
-7 26 -16 50 -21 52 -4 3 -18 27 -30 53 -12 26 -25 54 -30 62 -5 8 -12 22 -15
30 -3 8 -10 24 -16 35 -30 55 -106 213 -113 235 -4 14 -13 32 -19 40 -7 8 -27
49 -45 90 -18 41 -37 84 -44 95 -12 22 -52 96 -73 135 -8 14 -14 28 -14 31 0
4 -30 69 -66 145 -36 77 -79 168 -96 204 -17 36 -36 72 -43 80 -7 8 -18 33
-25 55 -7 22 -25 61 -41 86 -16 25 -29 57 -29 71 0 14 -10 36 -22 49 -13 14
-32 45 -42 69 -11 25 -30 68 -42 95 -13 28 -30 75 -37 105 -14 54 -15 55 -48
53 -73 -3 -377 -3 -429 1 -30 2 -101 7 -157 11 -91 7 -103 6 -109 -9z m643
-132 c15 -12 33 -34 38 -50 6 -17 20 -43 33 -58 12 -16 22 -39 22 -51 0 -12 7
-28 15 -35 8 -7 15 -23 15 -35 0 -12 9 -29 20 -36 17 -11 21 -25 21 -71 1 -32
5 -55 10 -52 5 3 9 12 9 20 0 44 30 -8 56 -96 4 -14 17 -41 30 -60 13 -19 24
-39 24 -45 0 -5 16 -32 35 -59 24 -33 33 -56 29 -71 -3 -13 1 -27 10 -34 9 -8
16 -21 16 -30 0 -9 4 -21 9 -26 6 -6 25 -48 43 -95 20 -52 39 -85 48 -85 8 0
21 -20 30 -45 9 -25 26 -61 38 -80 12 -19 22 -45 22 -58 0 -12 7 -25 15 -28 8
-4 15 -18 15 -34 0 -15 6 -30 13 -33 7 -3 19 -23 27 -46 7 -23 19 -46 27 -52
7 -6 13 -21 13 -33 1 -11 10 -37 20 -56 11 -19 34 -64 51 -100 18 -36 39 -69
46 -73 7 -4 13 -20 13 -36 0 -15 11 -42 24 -59 15 -21 22 -41 18 -58 -6 -32
-46 -53 -71 -37 -11 7 -23 8 -34 2 -28 -16 -67 0 -67 26 0 13 -4 27 -10 30 -5
3 -10 13 -10 22 0 9 -6 24 -13 32 -8 9 -29 52 -48 96 -18 44 -44 90 -56 102
-13 12 -23 30 -23 40 0 23 -31 86 -54 109 -12 12 -16 26 -12 44 4 21 -2 35
-25 61 -32 36 -37 51 -41 114 -2 32 -7 41 -24 43 -15 2 -27 21 -49 78 -16 41
-32 77 -37 80 -4 3 -8 12 -8 21 0 9 -9 27 -21 39 -11 12 -22 36 -24 54 -2 18
-10 39 -17 47 -35 43 -60 101 -52 125 3 11 -1 27 -9 36 -8 9 -22 33 -31 52
-26 56 -44 84 -63 98 -13 10 -14 16 -5 19 6 3 12 10 12 15 0 11 -8 21 -56 71
-12 12 -29 45 -38 74 -18 53 -93 143 -120 143 -23 0 -89 110 -80 134 4 11 27
13 104 12 83 -1 104 -5 127 -22z"/>
<path d="M4072 9098 c3 -7 13 -15 22 -16 12 -3 17 1 14 10 -3 7 -13 15 -22 16
-12 3 -17 -1 -14 -10z"/>
<path d="M7107 10994 c-12 -12 -523 -21 -572 -10 -41 9 -62 -10 -85 -75 -25
-68 -25 -83 2 -101 17 -12 23 -28 27 -74 4 -32 4 -444 1 -914 -6 -961 -12
-887 70 -874 25 4 98 6 163 5 64 -1 117 2 117 6 0 4 1 316 3 693 2 457 7 715
15 775 6 50 15 130 20 178 7 62 15 94 28 110 29 34 44 64 44 91 0 41 49 78
141 109 47 15 102 27 122 27 37 0 66 28 52 50 -7 11 -138 14 -148 4z m-481
-125 c4 -8 9 -8 17 0 6 6 47 11 91 11 60 0 84 -4 98 -17 24 -21 23 -39 -2 -46
-16 -4 -19 -11 -14 -36 5 -22 -1 -46 -19 -84 -21 -42 -25 -63 -22 -106 3 -36
-1 -64 -12 -84 -9 -18 -13 -43 -10 -63 3 -18 2 -35 -1 -39 -9 -9 -9 -15 -13
-555 -1 -256 -6 -476 -11 -488 -4 -13 -5 -29 -1 -35 7 -11 11 -44 13 -112 1
-35 -9 -135 -14 -144 -3 -4 -30 -8 -60 -8 -95 0 -87 -66 -91 759 -4 729 -8
950 -21 1001 -5 20 -3 27 9 27 8 0 20 7 27 15 15 18 26 19 36 4z"/>
<path d="M8496 10989 c-44 -5 -242 -10 -440 -11 l-361 -3 0 -145 c0 -80 -6
-201 -13 -270 -7 -69 -14 -133 -15 -144 -1 -10 6 -23 15 -29 24 -16 58 17 58
57 0 28 12 68 48 158 23 57 295 226 397 247 28 5 77 17 110 25 33 9 78 16 101
16 22 0 63 7 90 15 27 8 83 15 124 15 41 1 95 5 120 10 25 5 389 9 809 10
l765 1 20 -22 c14 -14 17 -23 9 -26 -26 -10 -64 -46 -80 -76 -20 -40 -94 -139
-110 -150 -7 -4 -13 -16 -13 -26 0 -9 -12 -33 -26 -52 -14 -19 -38 -59 -54
-89 -15 -30 -37 -63 -48 -73 -11 -11 -35 -49 -53 -85 -18 -37 -45 -80 -60 -97
-15 -16 -35 -46 -44 -65 -9 -19 -40 -69 -70 -110 -30 -41 -72 -109 -93 -150
-22 -41 -49 -84 -61 -94 -12 -11 -29 -36 -38 -55 -9 -20 -29 -52 -43 -71 -15
-19 -37 -53 -49 -75 -49 -90 -88 -154 -122 -201 -50 -68 -129 -191 -129 -201
0 -4 -16 -28 -35 -52 -19 -24 -35 -47 -35 -51 0 -5 -25 -40 -56 -79 -71 -92
-68 -107 19 -95 34 4 124 8 200 9 147 1 157 4 157 51 0 12 14 39 31 60 27 35
131 192 177 267 9 16 27 41 40 55 12 15 27 45 33 67 10 38 83 145 99 145 6 0
60 102 60 115 0 3 13 23 30 43 16 20 39 58 50 85 12 26 25 47 30 47 5 0 23 26
41 58 45 79 114 183 137 207 11 11 25 36 31 57 7 20 18 39 26 42 8 3 15 13 15
23 0 10 17 39 38 65 21 25 55 77 75 116 20 38 50 84 67 102 16 18 30 38 30 46
0 8 28 55 63 105 34 49 68 102 76 117 7 15 30 45 51 67 73 77 75 111 8 100
-108 -19 -270 -21 -351 -6 -71 12 -1730 13 -1851 0z m1998 -124 c23 -35 11
-102 -25 -136 -30 -28 -69 -92 -69 -113 0 -7 -12 -23 -26 -37 -14 -13 -37 -45
-51 -70 -14 -26 -34 -50 -45 -52 -16 -5 -17 -8 -7 -25 7 -11 9 -28 5 -38 -7
-18 -8 -18 -20 -1 -20 26 -36 21 -36 -12 0 -16 -6 -31 -15 -35 -9 -3 -15 -18
-15 -37 0 -21 -14 -49 -46 -91 -25 -33 -49 -71 -55 -85 -5 -14 -25 -44 -44
-67 -19 -24 -35 -49 -35 -56 0 -6 -13 -29 -29 -49 -15 -20 -31 -46 -35 -58 -5
-16 -15 -23 -32 -23 -21 0 -24 -3 -18 -26 8 -32 -13 -73 -43 -85 -13 -5 -23
-17 -23 -27 0 -11 -9 -31 -20 -45 -11 -14 -20 -34 -20 -45 0 -14 -8 -22 -22
-24 -18 -2 -23 -9 -21 -31 1 -15 -2 -27 -6 -27 -10 0 -71 -94 -71 -109 0 -6
-15 -28 -33 -48 -39 -45 -81 -107 -98 -145 -7 -16 -16 -28 -20 -28 -4 0 -10
-11 -13 -25 -4 -15 -17 -30 -31 -35 -16 -6 -25 -17 -25 -31 0 -30 -38 -89 -58
-91 -25 -2 -136 4 -140 7 -7 7 22 51 49 77 17 15 29 37 29 51 0 14 7 30 16 38
8 7 24 30 35 51 13 25 24 35 34 32 9 -4 16 3 21 23 4 15 17 42 29 58 12 17 20
38 18 48 -3 10 12 34 39 60 24 24 52 61 63 83 11 21 25 44 31 49 7 6 15 23 18
39 4 16 15 30 26 33 11 3 20 13 20 22 0 21 52 104 93 148 16 17 32 46 36 65 5
23 12 32 24 30 23 -4 48 49 41 86 -4 17 -1 32 5 36 7 5 11 -2 11 -18 0 -14 5
-26 10 -26 17 0 24 31 11 51 -9 15 -8 19 4 19 8 0 24 18 35 40 11 22 25 40 30
40 6 0 10 11 10 24 0 16 7 26 21 29 14 4 20 11 16 21 -8 19 30 97 45 93 7 -1
14 8 16 21 2 12 15 35 29 50 33 36 89 122 108 169 9 21 26 46 38 55 18 14 20
20 10 36 -16 27 -6 34 23 16 31 -21 51 -9 29 16 -11 12 -14 26 -10 39 7 23 20
27 30 11 8 -13 25 -3 25 15 0 23 76 93 101 95 4 0 14 -11 23 -25z m-2554 -4
c0 -15 -37 -41 -59 -41 -15 0 -31 -8 -39 -20 -25 -41 -57 -16 -46 38 5 26 7
27 75 27 38 0 69 -2 69 -4z"/>
<path d="M9960 10009 c0 -11 5 -17 10 -14 6 3 10 13 10 21 0 8 -4 14 -10 14
-5 0 -10 -9 -10 -21z"/>
<path d="M6376 10744 c-9 -8 -16 -23 -16 -32 0 -24 -25 -91 -38 -104 -7 -7
-12 -19 -12 -27 0 -22 -31 -103 -47 -122 -7 -8 -13 -22 -13 -30 0 -17 -26 -92
-40 -117 -19 -34 -40 -95 -40 -117 0 -12 -7 -28 -15 -35 -8 -7 -15 -21 -15
-32 0 -10 -11 -40 -24 -66 -13 -26 -33 -76 -44 -112 -27 -88 -63 -183 -73
-195 -4 -6 -11 -30 -15 -53 -4 -23 -11 -45 -15 -48 -5 -3 -9 -13 -9 -23 0 -10
-6 -24 -14 -30 -7 -6 -16 -28 -20 -49 -3 -20 -17 -59 -31 -87 -14 -27 -25 -54
-25 -60 0 -10 -75 -207 -90 -235 -4 -9 -11 -30 -14 -48 -4 -17 -12 -34 -17
-37 -5 -4 -9 -18 -9 -33 0 -15 -7 -36 -15 -46 -20 -26 -19 -65 1 -73 27 -10
47 11 60 61 7 25 16 52 22 59 5 7 24 57 41 112 18 55 36 109 41 120 38 84 50
116 50 128 0 7 11 35 24 63 13 27 26 60 30 74 4 14 11 34 16 45 39 93 50 127
50 148 0 13 8 35 18 48 10 13 26 49 35 79 18 60 63 193 76 225 20 47 53 121
62 137 5 10 9 24 9 32 0 7 9 35 21 62 34 82 36 87 59 164 12 41 26 89 31 106
5 17 9 37 9 46 0 9 7 21 15 28 16 14 21 75 6 85 -5 3 -17 -2 -25 -11z"/>
<path d="M4116 8771 c-10 -11 -26 -46 -36 -80 -11 -33 -23 -68 -29 -78 -5 -10
-16 -37 -25 -60 -38 -101 -52 -127 -89 -165 -46 -48 -38 -61 33 -52 56 8 66
17 53 46 -8 18 -6 31 8 61 l19 37 73 0 c91 0 107 -10 112 -73 2 -26 7 -51 10
-57 6 -10 95 -14 95 -4 0 3 -20 47 -44 97 -61 128 -76 163 -76 179 0 8 -4 18
-9 24 -5 5 -16 34 -26 64 -27 83 -39 94 -69 61z m18 -117 c9 -3 16 -14 16 -23
0 -9 7 -25 15 -35 36 -48 4 -91 -59 -79 -36 7 -42 26 -23 71 8 20 18 45 21 55
6 19 8 20 30 11z"/>
<path d="M4560 8783 c-25 -3 -49 -8 -54 -14 -6 -6 -6 -9 1 -9 6 0 19 -7 27
-16 24 -23 23 -301 -1 -351 -20 -42 -10 -53 54 -53 46 0 61 13 42 36 -15 18
-30 115 -22 144 8 31 47 25 78 -11 14 -18 39 -57 55 -89 35 -69 44 -77 95 -82
34 -2 40 0 43 18 2 13 -5 25 -20 32 -13 7 -34 29 -48 50 -14 20 -33 46 -42 56
-29 32 -23 70 12 83 32 12 70 66 70 101 0 12 -17 39 -38 60 -50 50 -95 58
-252 45z m181 -64 c33 -23 40 -71 15 -104 -16 -22 -119 -38 -136 -21 -11 11
-14 105 -4 130 9 24 89 21 125 -5z"/>
<path d="M5185 8781 c-23 -4 -84 -48 -105 -76 -24 -31 -48 -106 -49 -151 -1
-50 28 -106 88 -170 l45 -48 80 0 c98 0 146 20 146 60 0 25 -2 26 -37 19 -21
-3 -42 -11 -47 -16 -15 -14 -65 -11 -103 8 -71 33 -105 127 -82 228 15 68 52
102 121 111 38 5 51 3 78 -17 18 -13 36 -34 41 -47 13 -35 34 -21 37 24 5 67
-12 79 -110 79 -47 0 -93 -2 -103 -4z"/>
<path d="M5728 8781 c-43 -10 -118 -79 -139 -128 -42 -98 -15 -198 73 -274 51
-43 56 -45 121 -47 81 -2 104 6 157 54 55 50 68 77 76 166 8 88 -2 112 -70
180 -32 32 -56 47 -83 51 -45 8 -97 7 -135 -2z m137 -56 c25 -15 47 -37 53
-53 34 -98 40 -138 23 -170 -6 -9 -12 -28 -15 -42 -7 -31 -61 -69 -110 -77
-44 -7 -113 20 -121 48 -4 11 -10 19 -15 19 -5 0 -12 17 -15 38 -4 20 -11 49
-16 63 -8 19 -6 40 7 80 21 66 28 75 73 99 49 26 85 25 136 -5z"/>
<path d="M7377 8779 c-19 -11 -24 -64 -7 -74 6 -3 24 3 40 15 21 15 47 22 87
23 56 2 58 1 55 -23 -1 -14 -28 -63 -59 -110 -31 -47 -78 -118 -105 -157 -26
-40 -48 -79 -48 -87 0 -19 48 -29 94 -20 45 8 51 17 26 39 -22 20 -18 34 25
95 18 25 47 72 65 105 18 33 45 74 60 90 31 34 66 92 59 98 -10 10 -276 14
-292 6z"/>
<path d="M8666 8778 c-19 -11 -19 -11 0 -25 15 -11 19 -32 25 -136 6 -119 2
-146 -20 -133 -10 6 -64 74 -163 202 -34 45 -96 94 -118 94 -26 0 -32 -12 -14
-31 14 -16 16 -41 12 -184 -4 -142 -7 -167 -22 -178 -31 -23 -10 -45 47 -49
29 -3 55 -2 59 2 4 3 1 18 -7 33 -22 42 -41 247 -24 258 21 13 44 -7 89 -73
23 -35 55 -76 69 -93 15 -16 40 -49 55 -72 32 -47 56 -61 71 -40 6 9 12 82 14
174 2 171 6 199 28 225 13 14 12 18 -6 27 -25 14 -71 14 -95 -1z"/>
<path d="M8915 8777 c-19 -10 -19 -40 0 -77 16 -32 35 -40 35 -15 0 21 51 65
76 65 40 0 45 -19 43 -186 -1 -88 -5 -166 -10 -175 -12 -24 13 -41 53 -37 28
3 33 6 31 28 -8 88 -2 344 8 356 20 24 52 15 91 -23 32 -31 40 -35 48 -23 13
21 12 53 -2 72 -11 14 -42 17 -186 20 -95 2 -179 0 -187 -5z"/>
<path d="M10220 8783 c-51 -10 -109 -62 -141 -124 l-30 -60 16 -75 c11 -49 27
-86 46 -111 37 -46 52 -56 113 -75 42 -14 53 -14 82 -2 18 8 45 14 59 14 14 0
28 7 31 15 3 8 14 17 24 20 10 3 25 22 35 43 9 20 20 45 25 54 6 10 10 50 10
88 0 63 -4 77 -31 118 -42 63 -85 90 -156 96 -32 2 -69 2 -83 -1z m130 -65
c50 -39 70 -87 70 -174 0 -51 -5 -68 -31 -107 -33 -50 -59 -63 -112 -54 -95
16 -136 68 -144 181 -6 86 13 128 73 163 56 32 94 29 144 -9z"/>
<path d="M3250 8771 c0 -5 6 -14 14 -20 7 -6 16 -36 20 -65 9 -78 14 -88 37
-73 15 9 21 8 33 -8 8 -11 17 -33 20 -48 3 -16 17 -42 31 -59 14 -16 28 -42
31 -56 13 -53 43 -102 59 -95 16 5 65 92 65 113 0 6 9 23 21 39 21 29 44 109
34 120 -14 13 -85 -109 -85 -145 0 -43 -73 14 -83 64 -3 15 -23 59 -45 97 -22
39 -43 81 -47 95 -4 14 -12 31 -17 38 -12 14 -88 17 -88 3z"/>
<path d="M3660 8756 c0 -13 -7 -29 -15 -36 -24 -20 -20 -92 6 -114 20 -17 21
-24 15 -108 -4 -49 -10 -103 -13 -119 l-6 -30 54 3 c60 3 57 -6 38 98 -6 30
-11 105 -12 166 -2 94 1 115 16 131 22 25 13 33 -40 33 -39 0 -43 -2 -43 -24z"/>
<path d="M6185 8770 c-3 -6 2 -13 12 -17 10 -4 21 -11 25 -17 11 -16 9 -296
-2 -336 -8 -29 -7 -37 7 -47 9 -7 22 -13 28 -13 6 0 19 6 28 13 14 11 15 21 5
90 -12 85 -6 104 30 92 12 -3 31 -23 44 -43 12 -20 29 -44 38 -52 8 -9 32 -35
53 -58 41 -46 84 -55 121 -27 22 17 22 17 -20 34 -64 25 -209 211 -165 211 5
0 40 32 78 71 37 39 78 75 91 80 35 14 16 29 -36 29 -40 0 -50 -4 -67 -29 -94
-134 -145 -181 -166 -150 -12 17 -2 128 13 146 5 7 7 17 3 23 -8 13 -112 13
-120 0z"/>
<path d="M7850 8769 c0 -7 8 -18 18 -25 30 -22 29 -269 -3 -371 -7 -22 -6 -22
124 -22 72 0 135 -2 141 -6 29 -18 70 28 70 79 0 30 -35 41 -53 17 -29 -39
-66 -58 -117 -60 -46 -1 -52 2 -61 26 -5 15 -13 47 -16 71 -5 37 -3 47 12 58
26 20 64 17 110 -6 22 -11 41 -20 42 -20 6 0 3 88 -3 104 -5 13 -9 13 -27 1
-37 -24 -101 -30 -120 -10 -22 21 -22 93 -1 124 15 20 21 22 66 16 55 -8 113
-37 122 -61 9 -24 26 -6 26 27 0 67 -4 69 -175 69 -109 0 -155 -3 -155 -11z"/>
<path d="M9467 8773 c-4 -3 0 -14 8 -23 13 -15 15 -44 12 -186 -2 -93 -5 -178
-8 -189 -3 -17 2 -20 35 -23 21 -2 42 0 46 5 4 4 3 40 -2 80 -8 57 -7 77 5 99
13 24 13 32 0 63 -14 33 -13 91 4 159 5 21 2 22 -44 22 -27 0 -53 -3 -56 -7z"/>
<path d="M9740 8770 c0 -5 8 -14 18 -19 23 -12 46 -105 32 -130 -7 -13 -26
-20 -74 -24 -71 -7 -127 -29 -107 -41 7 -4 44 -9 84 -10 40 -1 78 -5 85 -9 16
-11 15 -82 -3 -131 -8 -22 -12 -43 -9 -48 7 -11 75 -10 93 1 12 8 12 12 2 25
-18 21 -16 344 2 372 4 7 0 15 -9 18 -25 10 -114 7 -114 -4z"/>
<path d="M10705 8774 c-7 -3 -8 -30 -3 -82 9 -88 8 -242 -3 -289 -8 -39 4 -53
47 -53 36 0 51 14 36 33 -14 17 -24 100 -16 131 6 26 31 40 55 31 15 -6 92
-118 112 -163 15 -35 25 -42 65 -42 39 0 41 16 6 56 -47 53 -84 112 -84 133 0
12 20 40 45 64 48 47 54 70 30 116 -27 53 -74 71 -183 70 -53 0 -102 -3 -107
-5z m186 -47 c27 -18 35 -30 37 -61 4 -46 -9 -63 -60 -77 -30 -8 -48 -7 -69 2
-28 11 -29 15 -29 73 0 35 5 67 12 74 19 19 72 14 109 -11z"/>
<path d="M3292 8548 c-6 -14 -14 -53 -18 -87 -5 -47 -11 -62 -25 -66 -42 -14
-8 -55 44 -55 31 0 55 26 39 42 -7 7 -12 35 -13 63 0 27 -4 68 -8 90 l-8 40
-11 -27z"/>
<path d="M7632 8430 c-7 -11 -28 -28 -47 -37 -42 -20 -41 -34 5 -46 53 -13 78
-2 89 41 6 20 11 43 11 50 0 20 -44 14 -58 -8z"/>
<path d="M3125 8076 c-17 -12 -18 -27 -11 -287 4 -151 11 -335 15 -409 4 -74
3 -148 -2 -165 -5 -16 -13 -77 -17 -135 -4 -58 -13 -125 -20 -150 -7 -25 -16
-63 -22 -85 -14 -57 -56 -135 -89 -167 -58 -54 -141 -88 -215 -88 -58 0 -71
-9 -54 -40 13 -25 49 -26 175 -5 61 10 166 15 331 15 165 0 244 4 251 11 7 7
19 8 30 4 55 -25 378 -57 418 -41 42 16 -25 56 -95 56 -20 0 -45 7 -56 15 -10
8 -31 15 -45 15 -48 0 -117 31 -160 72 -24 22 -58 47 -76 54 -25 11 -35 23
-43 53 -6 22 -28 61 -50 87 -22 27 -40 57 -40 67 0 10 -13 44 -29 75 -16 31
-35 82 -42 112 -8 30 -19 60 -25 65 -7 6 -15 56 -19 117 -3 59 -11 122 -17
140 -15 45 -27 186 -34 413 -7 211 -14 234 -59 201z m120 -1141 c0 -33 4 -40
24 -45 32 -7 38 -26 10 -33 -29 -8 -16 -23 27 -32 29 -5 35 -10 31 -26 -3 -11
1 -26 9 -33 8 -8 14 -21 14 -29 0 -8 10 -21 22 -29 12 -8 18 -19 15 -26 -9
-13 -113 -36 -133 -28 -8 3 -24 0 -35 -7 -17 -10 -22 -9 -29 4 -8 13 -20 15
-55 11 -49 -5 -57 5 -26 35 19 19 41 93 41 137 0 15 8 30 20 36 13 7 20 21 20
40 0 34 20 72 35 67 5 -2 10 -21 10 -42z m-75 -30 c0 -8 -4 -15 -10 -15 -5 0
-10 7 -10 15 0 8 5 15 10 15 6 0 10 -7 10 -15z"/>
<path d="M4395 8070 c-4 -13 3 -35 19 -63 47 -75 81 -138 107 -197 11 -25 26
-52 33 -60 7 -8 16 -31 20 -50 3 -19 26 -75 51 -125 118 -242 185 -382 185
-390 0 -5 6 -16 14 -24 8 -9 21 -36 29 -61 9 -25 25 -64 36 -87 12 -23 21 -51
21 -61 0 -11 7 -25 15 -32 8 -7 15 -21 15 -31 0 -25 13 -30 37 -14 15 10 24
35 33 82 7 38 18 77 24 88 7 11 20 43 30 70 11 28 23 55 28 61 10 14 38 117
38 143 0 10 7 24 15 31 8 7 15 21 15 30 0 10 10 31 23 47 33 40 71 132 168
403 11 30 24 63 29 72 6 10 10 24 10 31 0 7 14 39 30 71 35 67 33 86 -8 86
-28 0 -52 -29 -52 -64 0 -8 -7 -19 -15 -26 -8 -7 -15 -25 -15 -39 0 -15 -7
-36 -15 -47 -8 -10 -15 -27 -15 -37 0 -10 -7 -25 -15 -33 -8 -9 -15 -27 -15
-40 0 -14 -7 -41 -16 -62 -29 -69 -67 -187 -78 -247 -8 -45 -16 -61 -30 -63
-27 -6 -69 46 -100 125 -16 37 -32 73 -37 79 -16 19 -58 104 -91 184 -17 41
-37 82 -44 91 -8 8 -14 19 -14 24 0 4 -7 13 -16 19 -8 6 -17 29 -19 50 -2 21
-9 44 -17 51 -19 18 -66 27 -73 15 -10 -16 -233 -10 -267 7 -39 19 -66 16 -73
-7z m331 -110 c18 0 24 -5 24 -22 0 -12 8 -30 17 -40 20 -22 43 -80 50 -126 5
-29 9 -33 28 -28 19 5 23 0 33 -37 16 -63 36 -114 54 -134 9 -10 19 -29 23
-43 4 -14 15 -34 24 -45 33 -39 47 -89 46 -166 0 -66 -3 -80 -26 -110 -15 -19
-28 -43 -30 -54 -3 -11 -9 -19 -14 -18 -14 3 -19 53 -6 53 6 0 11 7 11 16 0
11 -6 14 -20 9 -15 -5 -22 0 -29 18 -5 13 -17 27 -25 30 -9 4 -16 17 -16 31 0
15 -7 25 -18 29 -23 5 -37 64 -21 83 9 11 7 14 -8 14 -11 0 -25 13 -34 33 -73
147 -81 166 -74 187 5 17 3 21 -12 18 -14 -2 -19 4 -21 30 -2 17 -7 32 -12 32
-9 0 -40 51 -40 65 0 3 7 5 15 5 8 0 15 9 15 20 0 24 -8 25 -39 3 -24 -16 -24
-16 -18 9 4 14 0 44 -7 66 -13 36 -13 42 2 55 17 16 66 27 90 20 8 -1 25 -3
38 -3z"/>
<path d="M8841 8078 c-8 -9 -59 -13 -178 -13 -112 0 -168 -4 -170 -11 -4 -13
-46 -77 -93 -142 -17 -24 -40 -63 -51 -85 -10 -23 -46 -79 -78 -124 -33 -45
-62 -91 -66 -102 -3 -11 -27 -50 -52 -88 -25 -37 -48 -75 -52 -83 -3 -9 -37
-62 -76 -119 -94 -138 -102 -150 -116 -191 -6 -19 -35 -62 -64 -95 -46 -53
-95 -139 -95 -167 0 -5 -18 -30 -39 -56 -21 -26 -42 -56 -45 -67 -4 -11 -29
-45 -56 -75 -52 -57 -64 -96 -36 -119 11 -9 32 -7 90 9 87 23 133 25 173 8 15
-7 39 -14 53 -16 14 -2 358 -6 765 -7 552 -3 744 0 754 8 10 9 180 13 630 15
616 2 616 2 619 23 2 12 -6 30 -18 41 -16 15 -20 27 -15 47 3 14 9 116 12 226
2 110 9 205 14 211 16 19 23 129 10 153 -17 31 -57 25 -53 -7 1 -13 -5 -33
-13 -45 -8 -12 -15 -30 -15 -40 0 -10 -12 -44 -26 -75 -37 -82 -155 -193 -254
-239 -41 -19 -82 -41 -90 -48 -8 -6 -42 -20 -75 -30 -33 -10 -64 -21 -69 -26
-6 -5 -22 -9 -36 -9 -14 0 -34 -6 -45 -14 -11 -7 -38 -16 -60 -19 -22 -3 -71
-13 -110 -22 -38 -9 -100 -20 -137 -25 -38 -5 -73 -12 -79 -16 -6 -3 -41 -8
-78 -10 -284 -17 -373 -24 -423 -33 -31 -5 -294 -10 -585 -12 l-528 -4 -3 24
c-2 14 6 33 21 50 38 40 106 145 119 182 6 19 20 40 30 47 10 7 39 55 64 107
26 52 65 114 88 137 23 24 47 55 53 68 7 14 24 43 38 65 13 22 34 58 46 80 29
52 61 98 77 108 7 4 19 24 27 43 8 19 28 52 45 72 16 20 30 42 30 49 0 7 14
28 30 46 17 19 30 39 30 44 0 5 13 27 30 49 16 21 30 43 30 48 0 14 92 149
122 180 43 42 63 86 46 97 -19 13 -52 11 -67 -3z m-149 -136 c9 -9 6 -18 -15
-40 -15 -16 -27 -40 -27 -54 0 -14 -7 -32 -16 -39 -9 -8 -27 -30 -40 -49 -13
-19 -37 -54 -54 -78 -16 -23 -30 -47 -30 -52 0 -6 -16 -33 -35 -60 -19 -27
-35 -58 -35 -68 0 -10 -20 -33 -43 -51 -36 -26 -43 -37 -39 -57 3 -16 -3 -33
-16 -47 -11 -12 -29 -41 -41 -64 -15 -31 -25 -41 -37 -36 -13 5 -15 2 -9 -16
5 -17 -3 -32 -39 -69 -27 -28 -46 -56 -46 -70 0 -12 -7 -25 -14 -28 -20 -8
-96 -110 -96 -129 0 -8 -6 -15 -14 -15 -21 0 -31 -21 -15 -31 12 -8 11 -11 -3
-20 -10 -5 -18 -17 -18 -25 0 -8 -7 -17 -15 -20 -8 -4 -15 -12 -15 -20 0 -15
-55 -100 -72 -110 -10 -7 -70 -21 -108 -27 -34 -5 7 133 53 181 15 16 27 34
27 40 0 17 60 122 82 144 10 10 18 24 18 31 0 7 23 42 50 78 28 35 54 78 59
94 6 23 13 29 29 28 19 -2 20 0 10 16 -10 16 -6 25 20 59 18 22 32 45 32 50 0
6 8 13 18 16 9 3 27 28 39 55 13 26 30 54 38 61 8 7 15 18 15 25 0 7 11 20 24
28 14 10 24 26 24 41 0 14 14 43 31 64 17 22 31 47 31 56 0 9 3 16 8 16 4 0
16 17 27 37 11 21 33 53 50 72 16 18 29 43 30 54 0 30 19 31 48 1 25 -25 27
-26 27 -6 0 11 -4 24 -10 27 -5 3 -10 10 -10 15 0 12 108 6 122 -8z m1830
-1169 c-3 -65 -8 -91 -20 -100 -15 -12 -61 -16 -232 -17 -98 -1 -105 18 -23
57 32 15 63 27 68 27 6 0 30 16 54 35 24 19 50 35 57 35 7 0 21 11 31 25 11
15 28 24 44 25 l25 0 -4 -87z"/>
<path d="M6827 8073 c-4 -4 -85 -7 -180 -8 l-172 -1 -2 -409 c-1 -225 -5 -425
-8 -444 -4 -20 -7 -71 -6 -113 2 -53 -3 -86 -13 -107 -9 -16 -16 -50 -16 -75
0 -25 -4 -48 -10 -51 -5 -3 -10 -22 -10 -42 0 -25 -10 -50 -35 -83 -42 -57
-116 -120 -142 -120 -10 0 -31 -7 -47 -15 -15 -8 -50 -15 -76 -15 -51 0 -77
-18 -66 -46 6 -15 18 -16 89 -10 45 3 109 10 142 15 84 13 332 13 340 1 8 -13
48 -13 61 -1 14 14 238 14 324 1 109 -17 241 -23 252 -12 6 6 7 19 3 31 -5 18
-14 21 -65 21 -32 0 -71 6 -87 14 -15 8 -42 20 -60 26 -19 7 -49 34 -74 66
-23 30 -45 54 -49 54 -17 0 -46 139 -60 285 -4 50 -13 115 -19 147 -13 64 -10
823 3 871 8 25 -1 36 -17 20z m-119 -130 c5 -10 10 -78 11 -152 1 -82 6 -140
13 -148 8 -9 9 -43 3 -111 -14 -173 -5 -372 21 -445 12 -34 13 -50 2 -89 -11
-44 -10 -49 9 -68 12 -10 24 -34 28 -52 3 -18 11 -58 17 -88 5 -30 17 -68 25
-83 26 -48 11 -52 -183 -51 -96 0 -176 3 -178 5 -2 2 0 24 5 49 6 25 16 79 23
120 6 41 16 81 20 88 11 19 35 125 30 133 -2 4 0 81 6 171 6 90 12 287 13 438
2 152 7 281 11 288 4 7 30 12 61 12 42 0 56 -4 63 -17z"/>
<path d="M5187 6133 c-4 -3 -3 -11 2 -17 4 -6 5 -56 1 -111 -6 -77 -4 -103 6
-114 11 -12 16 -12 29 -1 13 11 15 24 10 62 -10 68 16 65 49 -7 14 -30 29 -55
34 -55 14 0 35 30 61 83 13 27 27 45 32 40 4 -4 9 -35 11 -68 3 -57 4 -60 28
-60 21 0 25 4 22 25 -1 14 -4 70 -5 125 -2 87 -4 100 -20 103 -19 4 -56 -34
-57 -59 0 -8 -7 -24 -15 -35 -8 -10 -15 -27 -15 -36 0 -9 -10 -20 -22 -23 -24
-8 -57 26 -58 59 0 34 -42 96 -65 96 -12 0 -25 -3 -28 -7z"/>
<path d="M5647 6102 c-9 -21 -17 -45 -17 -52 0 -7 -6 -21 -13 -29 -7 -9 -24
-39 -37 -68 -19 -43 -21 -55 -10 -68 10 -12 16 -13 26 -4 8 6 14 18 14 25 0 7
14 23 30 36 28 21 30 25 24 66 -5 36 -4 44 7 40 8 -2 15 -20 17 -39 2 -19 9
-37 17 -41 7 -4 16 -24 19 -43 6 -32 10 -36 34 -33 23 3 27 7 25 33 -2 31 -29
90 -50 113 -7 7 -13 22 -13 33 0 25 -28 69 -44 69 -7 0 -20 -17 -29 -38z"/>
<path d="M5899 6133 c0 -5 -1 -51 -2 -103 -1 -52 -5 -102 -10 -110 -4 -9 -1
-24 8 -35 14 -19 16 -19 29 -2 9 12 12 37 8 86 -5 76 11 105 29 52 6 -17 15
-31 20 -31 5 0 23 -22 39 -49 17 -27 37 -52 45 -55 22 -8 38 31 31 80 -3 24 1
66 9 99 20 75 20 75 -20 75 l-36 0 7 -52 c11 -81 11 -83 -13 -86 -14 -2 -23 2
-23 10 0 20 -90 128 -106 128 -8 0 -14 -3 -15 -7z"/>
<path d="M6549 6103 c-31 -34 -35 -44 -33 -88 2 -98 25 -121 125 -128 84 -6
99 4 99 65 0 53 -5 59 -37 47 -17 -6 -23 -16 -23 -38 0 -32 -14 -41 -52 -34
-19 4 -32 18 -48 54 l-23 48 27 41 c24 36 31 41 59 38 24 -2 33 -8 35 -25 4
-27 19 -29 43 -7 17 15 17 18 2 40 -13 21 -23 24 -77 24 -59 0 -64 -2 -97 -37z"/>
<path d="M6849 6136 c-2 -3 -4 -57 -3 -121 1 -90 4 -119 15 -125 8 -4 44 -11
80 -14 54 -6 69 -4 83 9 21 21 22 75 1 75 -8 0 -15 -6 -15 -13 0 -20 -33 -47
-58 -47 -21 0 -52 34 -52 57 0 23 30 44 50 33 27 -15 32 -13 28 13 -2 17 -9
21 -26 19 -29 -4 -52 14 -52 42 0 45 41 58 94 31 37 -19 50 -10 30 21 -15 22
-23 24 -93 24 -43 0 -80 -2 -82 -4z"/>
<path d="M7127 6134 c-5 -5 -1 -51 9 -101 2 -13 11 -23 20 -23 16 0 63 -48 64
-65 0 -5 11 -23 24 -40 l24 -30 15 36 c23 57 29 79 20 79 -5 0 -14 -5 -21 -12
-15 -15 -47 13 -56 48 -4 13 -11 24 -16 24 -6 0 -10 13 -10 28 0 41 -49 79
-73 56z"/>
<path d="M7352 6128 c-7 -7 -12 -19 -12 -27 0 -9 -7 -29 -15 -45 -18 -35 -13
-58 12 -54 16 3 18 -5 18 -57 0 -58 1 -60 25 -57 36 5 44 17 30 43 -9 15 -11
53 -8 116 5 90 5 93 -16 93 -12 0 -27 -5 -34 -12z"/>
<path d="M7518 6133 c-2 -4 -1 -60 2 -123 l5 -115 33 3 c17 2 32 -1 32 -7 0
-13 54 -24 79 -16 15 4 41 50 41 71 0 11 -29 2 -40 -11 -7 -9 -20 -13 -28 -10
-8 3 -21 0 -29 -6 -21 -18 -35 2 -31 42 3 33 4 34 41 31 32 -3 37 -1 37 17 0
17 -6 20 -37 18 -38 -2 -38 -2 -38 38 0 34 3 40 24 43 13 2 28 -1 34 -7 6 -6
22 -11 35 -11 19 0 23 5 20 23 -3 21 -8 22 -90 25 -47 1 -88 -1 -90 -5z"/>
<path d="M7797 6134 c-3 -4 1 -17 9 -30 15 -21 16 -120 3 -189 -3 -15 2 -21
19 -23 21 -3 22 0 22 62 0 84 12 85 65 6 22 -33 48 -63 59 -66 26 -9 50 19 47
56 -5 54 -5 134 0 160 3 20 -1 26 -19 28 -34 5 -56 -5 -45 -21 22 -27 24 -127
3 -127 -4 0 -23 21 -41 46 -64 86 -81 104 -98 104 -10 0 -20 -3 -24 -6z"/>
<path d="M8094 6115 c-9 -35 0 -41 42 -26 20 7 38 10 41 7 3 -3 6 -50 7 -105
1 -92 3 -101 22 -110 35 -16 41 2 36 113 -5 107 3 130 31 101 20 -19 47 -19
47 -1 0 43 -9 46 -116 46 -103 0 -104 0 -110 -25z"/>
<path d="M6298 6118 c-21 -7 -28 -16 -28 -37 0 -14 -6 -35 -14 -46 -7 -11 -16
-36 -20 -56 -4 -21 -13 -42 -21 -49 -17 -14 -20 -46 -4 -55 17 -11 49 26 49
56 0 35 12 42 51 34 23 -5 35 -16 45 -41 12 -28 20 -34 44 -34 31 0 38 14 21
48 -4 9 -15 33 -23 52 -32 74 -59 130 -66 133 -4 3 -19 0 -34 -5z m20 -80 c11
-15 -2 -58 -17 -58 -6 0 -13 11 -17 24 -9 39 12 60 34 34z"/>
<path d="M7131 5926 c-15 -18 -3 -46 20 -46 19 0 24 16 13 44 -8 20 -18 20
-33 2z"/>
</g>
</svg>
